<svg id="Capa_1" data-name="Capa 1" xmlns="http://www.w3.org/2000/svg" viewBox="0 0 386 386"><defs><style>.cls-1{fill:#ba3a36;}.cls-2{fill:#307172;}.cls-3{fill:#e9af7d;}.cls-4{fill:#22374c;}</style></defs><path class="cls-1" d="M193,229.09a12.06,12.06,0,0,0-12.07,12.07v60.35a12.07,12.07,0,0,0,24.14,0V241.16A12.06,12.06,0,0,0,193,229.09Z"/><path class="cls-2" d="M120.58,156.66V98c0-40.52,33.16-74.54,73.68-73.85a72.5,72.5,0,0,1,71.16,72.41v25a12.07,12.07,0,1,0,24.14,0V98.27c0-54-44.21-99.18-98.23-98.26A96.68,96.68,0,0,0,96.44,96.56v60.1Z"/><path class="cls-3" d="M289.57,156.66H265.42v24.15h24.14a12.08,12.08,0,0,1,12.07,12.07V349.79a12.08,12.08,0,0,1-12.07,12.07H265.42V386h24.14a36.21,36.21,0,0,0,36.21-36.21V192.88A36.26,36.26,0,0,0,289.57,156.66Z"/><path class="cls-4" d="M265.42,361.86h-169a12.08,12.08,0,0,1-12.07-12.07V192.88a12.08,12.08,0,0,1,12.07-12.07h169V156.66h-169a36.25,36.25,0,0,0-36.21,36.22V349.79A36.21,36.21,0,0,0,96.44,386h169Z"/></svg>