<svg id="Capa_1" data-name="Capa 1" xmlns="http://www.w3.org/2000/svg" viewBox="0 0 386 386"><defs><style>.cls-1{fill:#ba3a36;}.cls-2{fill:#22374c;}.cls-3{fill:#e9af7d;}.cls-4{fill:#307172;}</style></defs><path class="cls-1" d="M97.56,340.08a19,19,0,1,1-26.82,0A19,19,0,0,1,97.56,340.08Z"/><path class="cls-1" d="M19.11,288.44a19,19,0,1,0,26.81,0A19,19,0,0,0,19.11,288.44Z"/><path class="cls-1" d="M11.07,210.23a12.9,12.9,0,1,0,3.68,25.54A120.19,120.19,0,0,1,116.4,269.6a120.19,120.19,0,0,1,33.83,101.65,12.9,12.9,0,1,0,25.54,3.68,146.1,146.1,0,0,0-41.12-123.58A146.1,146.1,0,0,0,11.07,210.23Z"/><path class="cls-2" d="M382.21,213.87a12.8,12.8,0,0,0-7.28-3.64,145.46,145.46,0,0,0-164.7,164.7,12.8,12.8,0,0,0,3.64,7.28h0a12.91,12.91,0,0,0,21.91-11A119.65,119.65,0,0,1,371.25,235.77a12.9,12.9,0,0,0,11-21.9Z"/><path class="cls-2" d="M288.44,340.08a19,19,0,1,0,26.82,0A19,19,0,0,0,288.44,340.08Z"/><circle class="cls-2" cx="353.49" cy="301.85" r="18.96"/><path class="cls-3" d="M97.56,45.92a19,19,0,1,0-26.82,0A19,19,0,0,0,97.56,45.92Z"/><path class="cls-3" d="M172.13,3.79a12.9,12.9,0,0,0-21.9,11A120.19,120.19,0,0,1,116.4,116.4,120.16,120.16,0,0,1,14.75,150.22a12.91,12.91,0,1,0-3.68,25.55,146.1,146.1,0,0,0,123.58-41.12A146.1,146.1,0,0,0,175.77,11.07,12.8,12.8,0,0,0,172.13,3.79Z"/><path class="cls-3" d="M45.92,97.56a19,19,0,1,0-26.82,0A19,19,0,0,0,45.92,97.56Z"/><circle class="cls-4" cx="353.49" cy="84.15" r="18.96"/><path class="cls-4" d="M315.26,45.92a19,19,0,1,0-26.82,0A19,19,0,0,0,315.26,45.92Z"/><path class="cls-4" d="M374.93,175.77a12.9,12.9,0,1,0-3.68-25.54A120.19,120.19,0,0,1,269.6,116.4,120.16,120.16,0,0,1,235.78,14.75a12.91,12.91,0,0,0-25.55-3.68,146.1,146.1,0,0,0,41.12,123.58A146.11,146.11,0,0,0,374.93,175.77Z"/></svg>